<svg xmlns="http://www.w3.org/2000/svg" xmlns:xlink="http://www.w3.org/1999/xlink" fill="none" version="1.1" width="199" height="77" viewBox="0 0 199 77"><g><path d="M6.976,63.92L0.704,63.92L7.936,12.208L15.616,12.208L24.32,51.12Q24.512,52.016,24.736,53.008Q24.96,54,25.152,55.024Q25.344,52.848,25.536,51.056L30.08,12.208L36.352,12.208L29.12,63.92L21.568,63.92L13.632,28.72Q13.312,27.184,12.864,24.944Q12.416,22.704,12.096,20.592Q11.904,22.832,11.648,25.04Q11.392,27.248,11.2,28.72L6.976,63.92ZM59.904,53.36Q58.368,58.672,54.976,61.616Q51.584,64.56,46.976,64.56Q42.112,64.56,39.808,61.904Q37.504,59.248,37.088,54.64Q36.672,50.032,37.376,44.144Q38.144,38.256,39.84,33.776Q41.536,29.296,44.544,26.768Q47.552,24.24,52.032,24.24Q56.704,24.24,59.008,26.832Q61.312,29.424,61.728,34.288Q62.144,39.152,61.184,46L43.264,46Q42.88,49.328,42.944,52.24Q43.008,55.152,44.032,56.976Q45.056,58.8,47.552,58.8Q52.16,58.8,54.208,52.528L59.904,53.36ZM51.52,30Q48.768,30,46.976,32.752Q45.184,35.504,44.096,40.752L55.424,40.752Q55.68,37.68,55.488,35.248Q55.296,32.816,54.368,31.408Q53.44,30,51.52,30ZM74.88,64.56Q68.672,64.56,66.368,59.664Q64.064,54.768,65.408,44.464Q66.752,34.032,70.304,29.136Q73.856,24.24,79.936,24.24Q86.208,24.24,88.512,29.136Q90.816,34.032,89.472,44.464Q88.128,54.768,84.576,59.664Q81.024,64.56,74.88,64.56ZM75.328,58.8Q78.272,58.8,80.16,55.312Q82.048,51.824,83.072,44.464Q84.16,37.04,83.264,33.52Q82.368,30,79.424,30Q76.608,30,74.752,33.52Q72.896,37.04,71.808,44.464Q70.784,51.824,71.616,55.312Q72.448,58.8,75.328,58.8ZM120.96,52.016Q118.912,58.416,115.296,61.488Q111.68,64.56,106.176,64.56Q98.816,64.56,96.224,58.128Q93.632,51.696,95.424,38.192Q97.28,24.432,101.76,18Q106.24,11.568,113.6,11.568Q118.4,11.568,120.96,14.608Q123.52,17.648,124.48,22.32L117.888,23.728Q117.44,21.04,116.192,19.504Q114.944,17.968,112.896,17.968Q109.824,17.968,107.872,20.112Q105.92,22.256,104.672,26.704Q103.424,31.152,102.336,38.192Q100.736,48.56,101.824,53.52Q102.912,58.48,107.392,58.48Q109.824,58.48,111.616,56.592Q113.408,54.704,114.816,51.056L120.96,52.016ZM129.152,63.92L122.944,63.92L130.56,10.16L136.768,10.16L134.208,28.208Q135.808,26.288,137.76,25.488Q139.712,24.688,141.376,24.688Q143.68,24.688,145.504,25.776Q147.328,26.864,148.224,29.36Q149.12,31.856,148.48,36.144L144.576,63.984L138.24,63.984L142.016,37.168Q142.976,30.384,138.688,30.384Q134.4,30.384,132.992,36.912L129.152,63.92ZM173.696,63.92L167.808,63.92L168.128,60.4Q166.72,62.32,164.96,63.44Q163.2,64.56,161.28,64.56Q158.208,64.56,156,62.512Q153.792,60.464,152.96,55.824Q152.128,51.184,153.216,43.44Q154.56,33.712,158.112,29.008Q161.664,24.304,166.336,24.304Q170.624,24.304,172.544,28.208L172.992,24.88L179.2,24.88L173.696,63.92ZM159.552,44.144Q159.04,48.24,159.008,51.568Q158.976,54.896,159.872,56.848Q160.768,58.8,162.944,58.8Q164.48,58.8,165.728,57.68Q166.976,56.56,167.872,54.768Q168.768,52.976,169.28,50.992L171.328,36.72Q171.392,33.776,170.208,31.92Q169.024,30.064,166.912,30.064Q164.928,30.064,163.456,31.984Q161.984,33.904,161.024,37.104Q160.064,40.304,159.552,44.144ZM182.272,52.592L185.728,30.512L181.568,30.512L182.4,24.88L186.624,24.88L188.288,14.128L194.176,14.128L192.576,24.88L199.808,24.88L198.976,30.512L191.68,30.512L188.48,51.888Q187.968,55.408,188.448,57.104Q188.928,58.8,190.72,58.8Q192.256,58.8,193.984,57.584L195.968,62.832Q193.984,63.728,191.84,64.24Q189.696,64.752,187.712,64.496Q185.728,64.24,184.288,62.992Q182.848,61.744,182.24,59.216Q181.632,56.688,182.272,52.592Z" fill="#000000" fill-opacity="1"/></g></svg>